<svg width="30" height="30" viewBox="0 0 30 30" fill="none" xmlns="http://www.w3.org/2000/svg">
<g clip-path="url(#clip0_9_910)">
<path d="M15 30C23.2843 30 30 23.2843 30 15C30 6.71573 23.2843 0 15 0C6.71573 0 0 6.71573 0 15C0 23.2843 6.71573 30 15 30Z" fill="#1C8ADB"/>
<path d="M22.4216 8.50562L22.1114 8.61812L5.27387 14.6846C5.15455 14.7215 5.05084 14.7969 4.97901 14.8991C4.90717 15.0013 4.87127 15.1244 4.87692 15.2492C4.88257 15.3739 4.92947 15.4933 5.01025 15.5885C5.09103 15.6838 5.20113 15.7496 5.3233 15.7755L9.68182 16.9687L10.4949 19.3551L11.308 21.7414C11.3547 21.8584 11.4292 21.9622 11.5252 22.0438C11.6211 22.1255 11.7355 22.1824 11.8585 22.2098C11.9814 22.2372 12.1092 22.2342 12.2307 22.2009C12.3522 22.1677 12.4638 22.1054 12.5557 22.0193L14.8074 19.892L19.229 22.8903C19.7693 23.2585 20.5398 22.9857 20.6778 22.3789L23.6063 9.43971C23.7494 8.7988 23.0744 8.2721 22.4216 8.50562ZM20.2722 11.3778L12.6648 17.596L12.3068 17.8891C12.2282 17.9515 12.1768 18.0419 12.1636 18.1414L12.0835 18.8028L11.8636 20.6607C11.8654 20.6833 11.8582 20.7057 11.8435 20.723C11.8288 20.7403 11.8078 20.751 11.7852 20.7528C11.7626 20.7546 11.7402 20.7473 11.723 20.7326C11.7057 20.7179 11.695 20.697 11.6932 20.6744L11.0744 18.8181L10.4352 16.9176C10.4082 16.8321 10.4118 16.7399 10.4454 16.6569C10.479 16.5738 10.5405 16.5051 10.6193 16.4624L18.5352 11.9249L20.025 11.0727C20.2415 10.9465 20.4631 11.221 20.2722 11.3778Z" fill="white"/>
</g>
<defs>
<clipPath id="clip0_9_910">
<rect width="30" height="30" fill="white"/>
</clipPath>
</defs>
</svg>
