<svg width="30" height="30" viewBox="0 0 30 30" fill="none" xmlns="http://www.w3.org/2000/svg">
<g clip-path="url(#clip0_9_922)">
<path d="M15 30C23.2843 30 30 23.2843 30 15C30 6.71573 23.2843 0 15 0C6.71573 0 0 6.71573 0 15C0 23.2843 6.71573 30 15 30Z" fill="#6F3FAA"/>
<path d="M23.6642 10.8835V10.8614C23.4631 10.0466 22.9381 9.20455 22.2494 8.49546C21.4449 7.66365 20.4205 7.01081 19.442 6.79944H19.4216C16.5038 6.24036 13.5064 6.24036 10.5886 6.79944H10.5682C8.75114 7.19319 6.77898 9.09205 6.3392 10.8614V10.8835C5.79888 13.3365 5.79888 15.8777 6.3392 18.3307V18.3511C6.65284 19.6125 7.74375 20.9386 9.0017 21.7398C9.41253 22.0075 9.85972 22.2147 10.3295 22.3551V24.329C10.3302 24.4867 10.3778 24.6407 10.4663 24.7713C10.5548 24.9019 10.6802 25.0031 10.8265 25.0622C10.9727 25.1213 11.1333 25.1354 11.2876 25.1029C11.442 25.0704 11.5832 24.9926 11.6932 24.8796L13.6943 22.8C14.1273 22.8239 14.5636 22.8375 14.9966 22.8375C16.4787 22.837 17.9574 22.6967 19.4131 22.4182H19.4335C21.2455 22.0227 23.2193 20.1239 23.6557 18.3546V18.3341C24.1993 15.8806 24.2022 13.3382 23.6642 10.8835ZM22.0807 17.9659C21.7875 19.1199 20.2909 20.5568 19.0994 20.821C17.5519 21.1175 15.9768 21.2461 14.4017 21.2046C14.3864 21.2036 14.371 21.2062 14.3568 21.2121C14.3427 21.218 14.33 21.2271 14.3199 21.2386L12.8591 22.7386L11.3045 24.3324C11.2797 24.3587 11.2475 24.3769 11.2122 24.3847C11.1768 24.3925 11.14 24.3895 11.1063 24.376C11.0727 24.3626 11.0439 24.3394 11.0237 24.3095C11.0034 24.2795 10.9926 24.2441 10.9926 24.208V20.9352C10.9927 20.9089 10.9835 20.8834 10.9666 20.8632C10.9498 20.8429 10.9264 20.8292 10.9006 20.8244C10.6521 20.7654 10.4125 20.6737 10.1881 20.5517C9.17557 20.0114 8.15454 18.9034 7.91932 17.9659C7.43209 15.7486 7.43209 13.452 7.91932 11.2347C8.21079 10.0858 9.71591 8.65228 10.8989 8.38637C13.6078 7.86805 16.3905 7.86805 19.0994 8.38637C19.7557 8.53296 20.5057 9.0324 21.092 9.64603C21.5744 10.1455 21.9443 10.7216 22.0807 11.2398C22.5672 13.4554 22.5672 15.7503 22.0807 17.9659Z" fill="white"/>
<path d="M19.142 18.1363C18.9206 18.6417 18.5399 19.0607 18.058 19.3295C17.9068 19.3936 17.7498 19.4433 17.5892 19.4778C17.4068 19.4232 17.233 19.3857 17.0778 19.3192C15.7857 18.8164 14.5829 18.1091 13.5153 17.2244C13.1982 16.9539 12.9004 16.6617 12.6239 16.3499C11.9411 15.5636 11.3677 14.6887 10.9193 13.7488C10.7011 13.3039 10.517 12.8437 10.3295 12.3851C10.1591 11.9675 10.4114 11.5329 10.6705 11.2209C10.9241 10.9317 11.236 10.6993 11.5858 10.5391C11.7089 10.4773 11.8497 10.4604 11.9839 10.4916C12.1181 10.5227 12.2372 10.5998 12.3205 10.7096C12.756 11.1989 13.1398 11.7318 13.4659 12.2999C13.5686 12.4651 13.6038 12.6635 13.5641 12.8539C13.5245 13.0444 13.413 13.2122 13.2528 13.3226C13.1676 13.3823 13.0824 13.4505 13.0091 13.517C12.9368 13.5705 12.8745 13.6362 12.825 13.7113C12.7823 13.7815 12.7563 13.8607 12.7492 13.9426C12.7421 14.0245 12.7541 14.1069 12.7841 14.1834C13.1131 15.0886 13.6125 15.8437 14.3591 16.3738C14.6118 16.5524 14.884 16.7017 15.1705 16.8187C15.3575 16.9204 15.5677 16.9721 15.7807 16.9687C16.1523 16.9244 16.275 16.5136 16.5341 16.3022C16.653 16.2048 16.8002 16.1484 16.9537 16.1413C17.1073 16.1343 17.259 16.1769 17.3864 16.263C17.6625 16.4334 17.9284 16.6261 18.1943 16.8136C18.4573 16.9931 18.7105 17.1865 18.9528 17.3931C19.0662 17.4754 19.1471 17.5948 19.1817 17.7305C19.2162 17.8663 19.2022 18.0098 19.142 18.1363Z" fill="white"/>
<path d="M15.4892 9.96831H15.271C15.3409 9.9649 15.4142 9.96831 15.4892 9.96831Z" fill="white"/>
<path d="M19.2614 15.0768C19.0909 15.0768 19.0074 14.9319 18.9955 14.7734C18.9733 14.4615 18.9563 14.1478 18.9136 13.8376C18.84 13.3142 18.6577 12.812 18.3784 12.3632C18.0914 11.8956 17.7095 11.4936 17.2573 11.1829C16.8051 10.8723 16.2928 10.66 15.7534 10.5598C15.508 10.5154 15.2574 10.5052 15.0102 10.4796C14.8534 10.4626 14.6472 10.4524 14.6131 10.2581C14.608 10.2203 14.611 10.1819 14.6219 10.1454C14.6329 10.109 14.6514 10.0752 14.6765 10.0465C14.7015 10.0178 14.7323 9.99474 14.7669 9.9789C14.8016 9.96306 14.8392 9.95479 14.8773 9.95465C14.9181 9.95229 14.9591 9.95229 15 9.95465C15.7451 9.96095 16.4771 10.1509 17.1312 10.5077C17.7853 10.8645 18.3413 11.3771 18.75 12.0001C19.0726 12.5023 19.2917 13.0638 19.3943 13.6518C19.4591 14.02 19.483 14.3984 19.5119 14.7734C19.5178 14.8101 19.5157 14.8477 19.5059 14.8836C19.4961 14.9195 19.4788 14.9529 19.4551 14.9816C19.4314 15.0103 19.4018 15.0336 19.3685 15.05C19.3351 15.0664 19.2986 15.0756 19.2614 15.0768Z" fill="white"/>
<path d="M18.3392 14.2807C18.3382 14.3313 18.3314 14.3817 18.3188 14.4307C18.3039 14.48 18.2742 14.5235 18.2337 14.5553C18.1932 14.5871 18.1439 14.6057 18.0925 14.6084C18.0411 14.6112 17.9901 14.5981 17.9464 14.5709C17.9027 14.5437 17.8684 14.5037 17.8483 14.4563C17.8295 14.3874 17.8209 14.3162 17.8227 14.2449C17.8267 13.8637 17.7512 13.4857 17.6011 13.1353C17.567 13.0603 17.5295 12.9836 17.4869 12.9103C17.2429 12.4897 16.8808 12.1501 16.4455 11.9336C16.1828 11.8095 15.9039 11.7235 15.617 11.6779C15.4909 11.6574 15.3648 11.6455 15.2386 11.6284C15.2058 11.6268 15.1737 11.6184 15.1442 11.6039C15.1147 11.5893 15.0886 11.5688 15.0673 11.5438C15.0461 11.5187 15.0302 11.4895 15.0207 11.458C15.0111 11.4266 15.0082 11.3935 15.0119 11.3608C15.012 11.3274 15.019 11.2944 15.0327 11.2639C15.0464 11.2334 15.0664 11.2062 15.0913 11.184C15.1163 11.1618 15.1456 11.1451 15.1775 11.135C15.2093 11.125 15.243 11.1218 15.2761 11.1256C15.7766 11.1449 16.267 11.2729 16.7131 11.5006C17.2578 11.7747 17.7022 12.2138 17.983 12.7551C18.1411 13.0713 18.247 13.4109 18.2966 13.7608C18.3058 13.8065 18.3126 13.8525 18.317 13.8989C18.3256 14.0012 18.329 14.1034 18.3375 14.2296C18.3375 14.2415 18.3392 14.2568 18.3392 14.2807Z" fill="white"/>
<path d="M17.1716 14.0455C17.1619 14.0888 17.1396 14.1281 17.1074 14.1585C17.0752 14.1889 17.0346 14.2089 16.9909 14.216H16.9534C16.8976 14.2196 16.8421 14.2049 16.7953 14.1742C16.7486 14.1434 16.7131 14.0983 16.6943 14.0455C16.6837 14.0176 16.6768 13.9884 16.6739 13.9586C16.6649 13.8439 16.6478 13.73 16.6227 13.6177C16.5721 13.3904 16.4429 13.1882 16.258 13.0467C16.1685 12.9825 16.0688 12.9341 15.9631 12.9035C15.8284 12.8643 15.6869 12.8745 15.554 12.8421C15.4883 12.8305 15.4298 12.7933 15.3915 12.7386C15.3532 12.684 15.338 12.6164 15.3494 12.5507C15.3621 12.4877 15.3973 12.4315 15.4485 12.3926C15.4996 12.3536 15.5632 12.3347 15.6273 12.3393C16.408 12.3955 16.9909 12.7705 17.1409 13.6075C17.1563 13.6852 17.1672 13.7637 17.1733 13.8427C17.1828 13.91 17.1823 13.9784 17.1716 14.0455Z" fill="white"/>
</g>
<defs>
<clipPath id="clip0_9_922">
<rect width="30" height="30" fill="white"/>
</clipPath>
</defs>
</svg>
